#!OML:ASF H:\Terrain\Patient Classification 1\Walking\liu\liu.ASF
:FULLY-SPECIFIED
:DEGREES
347
root 10.0364 16.6861 35.2665 8.2368 -4.69438 0.622175
lowerback -5.96022 4.67707 -5.52017
upperback 0.540593 6.61729 0.440467
thorax 3.21671 3.19139 4.06567
lowerneck -23.8968 -9.47257 -18.1331
upperneck 19.4075 -11.012 16.4566
head 12.4214 -4.40154 7.28006
rclavicle -5.58336e-014 1.68967e-015
rhumerus -25.0882 10.0522 -83.3951
rradius 45.8258
rwrist -21.7528
rhand -32.976 -24.6976
rfingers 7.12502
rthumb -6.19105 -54.5871
lclavicle -5.58336e-014 1.68967e-015
lhumerus -57.7003 16.0481 57.6393
lradius 13.8344
lwrist -22.1095
lhand -10.2917 -23.1693
lfingers 7.12502
lthumb 15.7027 6.21356
rfemur 12.278 -0.251423 17.5027
rtibia 36.0749
rfoot 12.2361 0.154516
rtoes -15.1484
lfemur -45.9765 5.94979 -24.8044
ltibia 41.3875
lfoot -3.24431 3.42954
ltoes -0.730715
348
root 10.0675 16.7479 35.4526 8.09618 -4.97456 1.44309
lowerback -7.03815 4.26562 -5.91069
upperback 2.3536 6.26713 -0.12144
thorax 5.79127 2.8734 3.88542
lowerneck -27.971 -9.22145 -16.1381
upperneck 19.1783 -10.5376 15.921
head 12.8326 -3.91728 6.78631
rclavicle 1.24365e-014 -4.96962e-016
rhumerus -21.4228 10.3138 -83.9902
rradius 44.2903
rwrist -21.7166
rhand -32.0157 -25.7003
rfingers 7.12502
rthumb -5.26386 -55.6149
lclavicle 1.24365e-014 -4.96962e-016
lhumerus -54.5201 18.9173 57.8968
lradius 13.8191
lwrist -21.3787
lhand -10.5856 -23.3016
lfingers 7.12502
lthumb 15.4197 6.10333
rfemur 10.1436 -0.459528 16.3553
rtibia 40.0454
rfoot 12.9722 -0.803835
rtoes -15.0974
lfemur -44.7663 6.00061 -25.7884
ltibia 40.8728
lfoot -3.87685 3.49309
ltoes -0.476783
349
root 10.1002 16.8076 35.6535 8.13874 -4.82337 2.1302
lowerback -5.12285 4.13041 -6.66877
upperback 0.704329 5.93514 -0.238852
thorax 2.94951 2.84195 3.88833
lowerneck -24.7035 -7.98058 -16.4324
upperneck 18.4718 -9.1885 16.2719
head 11.7338 -3.4406 7.23461
rclavicle 4.81121e-014 5.81445e-015
rhumerus -24.4863 10.5576 -84.7829
rradius 43.3637
rwrist -22.077
rhand -31.8147 -24.6842
rfingers 7.12502
rthumb -5.06981 -54.6035
lclavicle 4.81121e-014 5.81445e-015
lhumerus -56.231 16.9393 58.7515
lradius 14.4497
lwrist -19.3634
lhand -10.9121 -23.6784
lfingers 7.12502
lthumb 15.1052 5.75043
rfemur 7.94562 -1.12459 15.3973
rtibia 43.8286
rfoot 13.1015 -3.48934
rtoes -11.7555
lfemur -43.7132 5.9657 -26.7494
ltibia 40.3454
lfoot -4.46943 3.23467
ltoes 0.0786997
350
root 10.1303 16.8571 35.8485 8.24772 -4.73117 2.49405
lowerback -5.12285 4.13041 -6.66877
upperback 0.704329 5.93514 -0.238852
thorax 2.94951 2.84195 3.88833
lowerneck -24.7035 -7.98058 -16.4324
upperneck 18.4718 -9.1885 16.2719
head 11.7338 -3.4406 7.23461
rclavicle 4.81121e-014 5.81445e-015
rhumerus -24.4863 10.5576 -84.7829
rradius 43.3637
rwrist -22.077
rhand -31.8147 -24.6842
rfingers 7.12502
rthumb -5.06981 -54.6035
lclavicle 4.81121e-014 5.81445e-015
lhumerus -56.231 16.9393 58.7515
lradius 14.4497
lwrist -19.3634
lhand -10.9121 -23.6784
lfingers 7.12502
lthumb 15.1052 5.75043
rfemur 5.71815 -1.61948 14.9049
rtibia 47.4531
rfoot 12.2124 -6.16507
rtoes -9.57882
lfemur -42.766 6.05071 -27.3371
ltibia 39.8262
lfoot -5.03914 3.01055
ltoes -0.0187811
351
root 10.1616 16.909 36.0345 8.28059 -4.77058 2.58059
lowerback -5.12285 4.13041 -6.66877
upperback 0.704329 5.93514 -0.238852
thorax 2.94951 2.84195 3.88833
lowerneck -24.7035 -7.98058 -16.4324
upperneck 18.4718 -9.1885 16.2719
head 11.7338 -3.4406 7.23461
rclavicle 4.81121e-014 5.81445e-015
rhumerus -24.4863 10.5576 -84.7829
rradius 43.3637
rwrist -22.077
rhand -31.8147 -24.6842
rfingers 7.12502
rthumb -5.06981 -54.6035
lclavicle 4.81121e-014 5.81445e-015
lhumerus -56.231 16.9393 58.7515
lradius 14.4497
lwrist -19.3634
lhand -10.9121 -23.6784
lfingers 7.12502
lthumb 15.1052 5.75043
rfemur 3.60481 -1.94658 14.7812
rtibia 50.7951
rfoot 10.925 -8.30362
rtoes -9.1011
lfemur -41.8208 6.16104 -27.5439
ltibia 39.4352
lfoot -5.58432 2.94631
ltoes 0.29722
352
root 10.1896 16.966 36.228 8.27176 -4.73014 2.87164
lowerback -5.12285 4.13041 -6.66877
upperback 0.704329 5.93514 -0.238852
thorax 2.94951 2.84195 3.88833
lowerneck -24.7035 -7.98058 -16.4324
upperneck 18.4718 -9.1885 16.2719
head 11.7338 -3.4406 7.23461
rclavicle 4.81121e-014 5.81445e-015
rhumerus -24.4863 10.5576 -84.7829
rradius 43.3637
rwrist -22.077
rhand -31.8147 -24.6842
rfingers 7.12502
rthumb -5.06981 -54.6035
lclavicle 4.81121e-014 5.81445e-015
lhumerus -56.231 16.9393 58.7515
lradius 14.4497
lwrist -19.3634
lhand -10.9121 -23.6784
lfingers 7.12502
lthumb 15.1052 5.75043
rfemur 1.60993 -2.44765 14.4173
rtibia 53.7911
rfoot 9.56719 -9.90408
rtoes -9.69462
lfemur -40.8993 6.05882 -27.9065
ltibia 39.2917
lfoot -6.34031 2.89746
ltoes 0.491498
353
root 10.2071 17.0235 36.4182 8.3881 -4.50336 2.2959
lowerback -5.12285 4.13041 -6.66877
upperback 0.704329 5.93514 -0.238852
thorax 2.94951 2.84195 3.88833
lowerneck -24.7035 -7.98058 -16.4324
upperneck 18.4718 -9.1885 16.2719
head 11.7338 -3.4406 7.23461
rclavicle 4.81121e-014 5.81445e-015
rhumerus -24.4863 10.5576 -84.7829
rradius 43.3637
rwrist -22.077
rhand -31.8147 -24.6842
rfingers 7.12502
rthumb -5.06981 -54.6035
lclavicle 4.81121e-014 5.81445e-015
lhumerus -56.231 16.9393 58.7515
lradius 14.4497
lwrist -19.3634
lhand -10.9121 -23.6784
lfingers 7.12502
lthumb 15.1052 5.75043
rfemur -0.460567 -2.75168 15.2528
rtibia 56.4857
rfoot 7.93204 -11.5046
rtoes -10.3682
lfemur -40.0831 5.97438 -27.3056
ltibia 39.0737
lfoot -7.02335 2.76546
ltoes -1.39175
354
root 10.2223 17.0793 36.5994 8.82627 -3.92892 0.289706
lowerback -5.12285 4.13041 -6.66877
upperback 0.704329 5.93514 -0.238852
thorax 2.94951 2.84195 3.88833
lowerneck -24.7035 -7.98058 -16.4324
upperneck 18.4718 -9.1885 16.2719
head 11.7338 -3.4406 7.23461
rclavicle 4.81121e-014 5.81445e-015
rhumerus -24.4863 10.5576 -84.7829
rradius 43.3637
rwrist -22.077
rhand -31.8147 -24.6842
rfingers 7.12502
rthumb -5.06981 -54.6035
lclavicle 4.81121e-014 5.81445e-015
lhumerus -56.231 16.9393 58.7515
lradius 14.4497
lwrist -19.3634
lhand -10.9121 -23.6784
lfingers 7.12502
lthumb 15.1052 5.75043
rfemur -2.74639 -2.93488 17.9383
rtibia 58.7187
rfoot 6.31297 -13.4921
rtoes -10.0687
lfemur -39.7454 5.9381 -25.1561
ltibia 38.9954
lfoot -7.49575 2.48234
ltoes -2.59245
355
root 10.2489 17.144 36.7868 8.26902 -4.1607 0.799126
lowerback -5.12285 4.13041 -6.66877
upperback 0.704329 5.93514 -0.238852
thorax 2.94951 2.84195 3.88833
lowerneck -24.7035 -7.98058 -16.4324
upperneck 18.4718 -9.1885 16.2719
head 11.7338 -3.4406 7.23461
rclavicle 4.81121e-014 5.81445e-015
rhumerus -24.4863 10.5576 -84.7829
rradius 43.3637
rwrist -22.077
rhand -31.8147 -24.6842
rfingers 7.12502
rthumb -5.06981 -54.6035
lclavicle 4.81121e-014 5.81445e-015
lhumerus -56.231 16.9393 58.7515
lradius 14.4497
lwrist -19.3634
lhand -10.9121 -23.6784
lfingers 7.12502
lthumb 15.1052 5.75043
rfemur -4.17657 -2.91115 17.3782
rtibia 60.836
rfoot 4.76149 -14.6607
rtoes -9.28665
lfemur -37.9881 5.91468 -25.666
ltibia 38.5753
lfoot -8.24339 2.71429
ltoes -1.62321
356
root 10.2699 17.2016 36.9867 8.34126 -3.814 0.221369
lowerback -5.12285 4.13041 -6.66877
upperback 0.704329 5.93514 -0.238852
thorax 2.94951 2.84195 3.88833
lowerneck -24.7035 -7.98058 -16.4324
upperneck 18.4718 -9.1885 16.2719
head 11.7338 -3.4406 7.23461
rclavicle 4.81121e-014 5.81445e-015
rhumerus -24.4863 10.5576 -84.7829
rradius 43.3637
rwrist -22.077
rhand -31.8147 -24.6842
rfingers 7.12502
rthumb -5.06981 -54.6035
lclavicle 4.81121e-014 5.81445e-015
lhumerus -56.231 16.9393 58.7515
lradius 14.4497
lwrist -19.3634
lhand -10.9121 -23.6784
lfingers 7.12502
lthumb 15.1052 5.75043
rfemur -6.00273 -3.07846 18.2713
rtibia 62.5908
rfoot 3.182 -15.7963
rtoes -8.73581
lfemur -36.9504 5.858 -25.1257
ltibia 38.095
lfoot -8.75675 2.57204
ltoes -1.35731
357
root 10.2872 17.2577 37.1674 8.31646 -3.69137 0.625403
lowerback -5.12285 4.13041 -6.66877
upperback 0.704329 5.93514 -0.238852
thorax 2.94951 2.84195 3.88833
lowerneck -24.7035 -7.98058 -16.4324
upperneck 18.4718 -9.1885 16.2719
head 11.7338 -3.4406 7.23461
rclavicle 4.81121e-014 5.81445e-015
rhumerus -24.4863 10.5576 -84.7829
rradius 43.3637
rwrist -22.077
rhand -31.8147 -24.6842
rfingers 7.12502
rthumb -5.06981 -54.6035
lclavicle 4.81121e-014 5.81445e-015
lhumerus -56.231 16.9393 58.7515
lradius 14.4497
lwrist -19.3634
lhand -10.9121 -23.6784
lfingers 7.12502
lthumb 15.1052 5.75043
rfemur -7.95901 -3.13706 18.0441
rtibia 64.2732
rfoot 1.83158 -16.6037
rtoes -7.85327
lfemur -35.7117 5.70784 -25.6112
ltibia 37.2228
lfoot -9.07847 2.63727
ltoes -1.80528
358
root 10.3058 17.3184 37.3413 8.2646 -3.54074 0.816062
lowerback -5.12285 4.13041 -6.66877
upperback 0.704329 5.93514 -0.238852
thorax 2.94951 2.84195 3.88833
lowerneck -24.7035 -7.98058 -16.4324
upperneck 18.4718 -9.1885 16.2719
head 11.7338 -3.4406 7.23461
rclavicle 4.81121e-014 5.81445e-015
rhumerus -24.4863 10.5576 -84.7829
rradius 43.3637
rwrist -22.077
rhand -31.8147 -24.6842
rfingers 7.12502
rthumb -5.06981 -54.6035
lclavicle 4.81121e-014 5.81445e-015
lhumerus -56.231 16.9393 58.7515
lradius 14.4497
lwrist -19.3634
lhand -10.9121 -23.6784
lfingers 7.12502
lthumb 15.1052 5.75043
rfemur -9.90324 -3.11436 18.0633
rtibia 65.737
rfoot 0.732127 -17.1175
rtoes -7.6111
lfemur -34.2478 5.30646 -25.7455
ltibia 35.9145
lfoot -9.1541 2.89191
ltoes -0.677968
359
root 10.313 17.3733 37.5099 8.26573 -3.20347 0.425268
lowerback -5.12285 4.13041 -6.66877
upperback 0.704329 5.93514 -0.238852
thorax 2.94951 2.84195 3.88833
lowerneck -24.7035 -7.98058 -16.4324
upperneck 18.4718 -9.1885 16.2719
head 11.7338 -3.4406 7.23461
rclavicle 4.81121e-014 5.81445e-015
rhumerus -24.4863 10.5576 -84.7829
rradius 43.3637
rwrist -22.077
rhand -31.8147 -24.6842
rfingers 7.12502
rthumb -5.06981 -54.6035
lclavicle 4.81121e-014 5.81445e-015
lhumerus -56.231 16.9393 58.7515
lradius 14.4497
lwrist -19.3634
lhand -10.9121 -23.6784
lfingers 7.12502
lthumb 15.1052 5.75043
rfemur -11.8714 -2.89115 18.9228
rtibia 66.9282
rfoot -0.0767542 -17.4814
rtoes -8.85518
lfemur -32.8511 4.85329 -25.1872
ltibia 34.5141
lfoot -9.07968 3.06109
ltoes 0.358182
360
root 10.3633 17.4459 37.7282 9.07133 -4.33222 3.50276
lowerback -5.12285 4.13041 -6.66877
upperback 0.704329 5.93514 -0.238852
thorax 2.94951 2.84195 3.88833
lowerneck -24.7035 -7.98058 -16.4324
upperneck 18.4718 -9.1885 16.2719
head 11.7338 -3.4406 7.23461
rclavicle 4.81121e-014 5.81445e-015
rhumerus -24.4863 10.5576 -84.7829
rradius 43.3637
rwrist -22.077
rhand -31.8147 -24.6842
rfingers 7.12502
rthumb -5.06981 -54.6035
lclavicle 4.81121e-014 5.81445e-015
lhumerus -56.231 16.9393 58.7515
lradius 14.4497
lwrist -19.3634
lhand -10.9121 -23.6784
lfingers 7.12502
lthumb 15.1052 5.75043
rfemur -14.7601 -2.67155 14.8106
rtibia 68.1412
rfoot -0.488574 -15.8923
rtoes -11.6005
lfemur -31.66 4.28366 -28.8823
ltibia 32.8425
lfoot -9.74902 4.23933
ltoes -0.157251
361
root 10.4006 17.4932 37.922 8.75761 -4.56497 3.32461
lowerback -5.12285 4.13041 -6.66877
upperback 0.704329 5.93514 -0.238852
thorax 2.94951 2.84195 3.88833
lowerneck -24.7035 -7.98058 -16.4324
upperneck 18.4718 -9.1885 16.2719
head 11.7338 -3.4406 7.23461
rclavicle 4.81121e-014 5.81445e-015
rhumerus -24.4863 10.5576 -84.7829
rradius 43.3637
rwrist -22.077
rhand -31.8147 -24.6842
rfingers 7.12502
rthumb -5.06981 -54.6035
lclavicle 4.81121e-014 5.81445e-015
lhumerus -56.231 16.9393 58.7515
lradius 14.4497
lwrist -19.3634
lhand -10.9121 -23.6784
lfingers 7.12502
lthumb 15.1052 5.75043
rfemur -16.2789 -2.22458 14.9966
rtibia 69.0972
rfoot -1.57469 -15.1872
rtoes -13.9684
lfemur -29.4215 3.90849 -28.6908
ltibia 30.8322
lfoot -9.75406 4.99242
ltoes -0.81498
